<?xml version="1.0" encoding="UTF-8"?>
<!-- Generated by Pixelmator Pro 3.8 -->
<svg width="384" height="384" viewBox="0 0 384 384" xmlns="http://www.w3.org/2000/svg">
    <g id="Group-copy">
        <path id="Path" fill="#0278fe" stroke="none" d="M 10.5219 310.794983 C 9.7001 248.466003 10.226601 185.164978 10.225899 122.770996 L 10.2174 64.369995 C 10.1991 50.166992 6.747398 30.014038 18.944504 20.803955 C 26.987701 14.72998 38.127602 15.990967 47.662399 16.039001 L 80.803001 16.216003 L 120.014008 16.01001 C 156.048996 15.823975 153.085999 17.059998 171.925003 46.757996 C 178.462006 57.062988 205.082001 54.377991 217.291992 54.329956 L 292.419006 54.255005 C 322.171997 54.244019 350.760986 47.411987 347.764008 87.666992 C 347.562012 90.377014 347.769989 92.843018 347.358002 95.676025 L 347.825989 97.125977 C 351.404999 97.179016 353.955994 96.880981 357.299011 97.883972 C 363.690002 100.385986 372.675995 106.28302 373.684998 113.013977 C 375.332001 123.999023 372.052002 142.510986 370.669006 153.429016 L 364.419006 202.583008 C 363.687012 208.442993 361.115997 234.927002 359.803986 238.830994 C 363.140015 243.294983 364.903992 245.018005 366.790985 250.393005 L 369.979004 254.117981 L 370.088013 283.950012 C 370.151001 311.702026 368.178009 324.435974 347.628998 346.731995 C 340.257996 354.72998 318.549011 370.61499 307.757996 370.60498 C 297.309998 370.596008 276.212006 354.697998 268.562012 347.552002 C 264.09201 347.208008 260.372986 346.804993 256.046997 348.369995 C 246.756012 349.007019 232.259003 348.549011 222.394989 348.547974 L 158.785004 348.534973 L 76.920998 348.572021 C 62.836998 348.575012 48.587898 348.669983 34.494598 348.494019 C 26.429001 348.202026 21.2341 347.106995 15.654202 340.70697 C 8.2901 332.258972 10.052601 321.249023 10.5219 310.794983 Z"/>
        <path id="path1" fill="#003fbb" stroke="none" d="M 10.5219 310.794983 C 9.7001 248.466003 10.226601 185.164978 10.225899 122.770996 L 10.2174 64.369995 C 10.1991 50.166992 6.747398 30.014038 18.944504 20.803955 C 26.987701 14.72998 38.127602 15.990967 47.662399 16.039001 L 80.803001 16.216003 L 120.014008 16.01001 C 156.048996 15.823975 153.085999 17.059998 171.925003 46.757996 C 178.462006 57.062988 205.082001 54.377991 217.291992 54.329956 L 292.419006 54.255005 C 322.171997 54.244019 350.760986 47.411987 347.764008 87.666992 C 347.562012 90.377014 347.769989 92.843018 347.358002 95.676025 C 335.221008 96.143982 321.088989 95.794006 308.744995 95.789001 L 234.621002 95.747009 L 196.813995 95.843018 C 189.559006 95.861023 181.139999 96.255005 174.024994 95.184998 C 165.302994 93.872986 160.218002 85.087036 151.697998 82.577026 L 153.218002 84.773987 C 151.128998 84.109985 148.296997 83.261963 146.097 83.234009 C 114.783997 82.841003 83.335007 82.707031 52.030403 83.276978 C 41.936096 83.460999 36.897903 90.15802 32.185303 98.057007 C 31.781097 98.734985 31.950699 98.502991 31.225403 98.979004 C 30.010696 102.679993 28.493797 129.127991 27.925102 134.822998 L 17.0214 252.724976 C 15.9259 264.958008 14.757301 277.185974 13.515598 289.405029 C 12.991798 294.387024 11.7798 306.05603 10.5219 310.794983 Z"/>
        <path id="path2" fill="#ccf1fe" stroke="none" d="M 31.225403 98.979004 C 31.452301 97.841003 31.603203 97.28302 32.026703 96.172974 C 34.392899 89.997986 39.226402 85.087036 45.364304 82.624023 C 50.088699 80.718994 59.071999 80.880005 64.357002 80.914001 C 91.531006 81.088013 118.755005 80.530029 145.914993 81.198975 C 147.951004 81.249023 149.834 81.823975 151.697998 82.577026 L 153.218002 84.773987 C 151.128998 84.109985 148.296997 83.261963 146.097 83.234009 C 114.783997 82.841003 83.335007 82.707031 52.030403 83.276978 C 41.936096 83.460999 36.897903 90.15802 32.185303 98.057007 C 31.781097 98.734985 31.950699 98.502991 31.225403 98.979004 Z"/>
        <g id="g1">
            <path id="path3" fill="#00b4a2" stroke="none" d="M 268.562012 347.552002 C 263.438995 341.713989 260.790009 338.690979 256.524994 332.267029 C 243.878998 314.221985 245.037994 293.84198 245.385986 272.921021 C 245.46701 268.044983 243.584015 252.947021 249.023987 250.857971 C 259.104004 246.987976 269.902008 245.01001 280.139008 241.155029 C 289.165985 237.755005 297.061005 232.041016 306.286011 229.461975 C 311.186005 228.609009 318.332001 232.651001 322.523987 234.919006 C 337.002014 242.752014 351.201996 245.828979 366.790985 250.393005 L 369.979004 254.117981 L 370.088013 283.950012 C 370.151001 311.702026 368.178009 324.435974 347.628998 346.731995 C 340.257996 354.72998 318.549011 370.61499 307.757996 370.60498 C 297.309998 370.596008 276.212006 354.697998 268.562012 347.552002 Z"/>
            <path id="path4" fill="#ffffff" fill-rule="evenodd" stroke="none" d="M 261.045654 354.147797 L 261.373047 354.520874 L 261.735779 354.85968 C 266.587616 359.391876 274.373383 365.431519 281.684418 370.154572 C 291.875397 376.738129 300.463409 380.598724 307.74942 380.60498 C 315.204163 380.611877 324.208496 376.652649 334.400055 370.072662 C 342.428223 364.889404 350.479065 358.395386 354.982422 353.508972 C 366.124054 341.420105 372.538666 331.480408 376.102448 320.46524 C 379.255371 310.71994 380.127136 301.173218 380.087982 283.927307 L 379.978943 254.081436 L 379.965515 250.407211 L 377.576416 247.615738 L 374.388397 243.890762 L 372.454773 241.631439 L 369.600769 240.795868 C 367.879333 240.29187 366.108276 239.785797 363.985168 239.188614 C 362.810455 238.8582 358.881989 237.760529 358.563843 237.671371 C 346.830627 234.383179 340.57309 232.339111 333.817444 229.33374 C 331.57309 228.335312 329.404327 227.271713 327.282471 226.123734 C 327.093964 226.021744 326.871613 225.901062 326.417969 225.654816 C 326.034515 225.446823 325.737244 225.286209 325.435394 225.124207 C 324.625214 224.689438 323.901886 224.309753 323.177185 223.941757 C 320.957092 222.814392 318.919647 221.897675 316.886169 221.159348 C 312.558167 219.587891 308.568695 218.914246 304.571045 219.610123 L 304.076752 219.696167 L 303.593536 219.831268 C 298.540466 221.243958 294.597748 223.002884 287.537292 226.634949 C 287.302856 226.755554 287.084808 226.867844 286.636749 227.098618 C 281.652893 229.665466 279.34552 230.768082 276.614227 231.796829 C 273.110291 233.116318 269.637054 234.187103 263.757568 235.832382 C 263.257202 235.972397 262.994507 236.04567 261.900696 236.350494 C 253.820129 238.602417 250.060486 239.748352 245.439789 241.522369 C 240.440521 243.442169 237.708374 247.478226 236.327744 252.522278 C 235.537827 255.408173 235.205017 258.610138 235.144638 262.365448 C 235.111679 264.415314 235.155899 266.297485 235.270096 269.085022 C 235.385681 271.906342 235.396286 272.21817 235.38736 272.754883 C 235.371384 273.716003 235.356812 274.512939 235.324844 276.209869 C 235.036819 291.494415 235.175598 298.221039 236.408401 306.757416 C 238.099838 318.469421 241.79454 328.634827 248.261505 337.899872 C 252.245438 343.894287 254.385162 346.557739 261.045654 354.147797 Z M 256.524994 332.267029 C 260.790009 338.690979 263.438995 341.713989 268.562012 347.552002 C 276.212006 354.697998 297.309998 370.596008 307.757996 370.60498 C 318.549011 370.61499 340.257996 354.72998 347.628998 346.731995 C 368.178009 324.435974 370.151001 311.702026 370.088013 283.950012 L 369.979004 254.117981 L 366.790985 250.393005 C 351.201996 245.828979 337.002014 242.752014 322.523987 234.919006 C 322.338226 234.818497 322.146637 234.714508 321.949738 234.60762 C 317.703064 232.302368 310.968872 228.646805 306.286011 229.461975 C 297.061005 232.041016 289.165985 237.755005 280.139008 241.155029 C 269.902008 245.01001 259.104004 246.987976 249.023987 250.857971 C 244.589722 252.560806 245.021072 262.907196 245.288223 269.315369 C 245.348816 270.768768 245.40097 272.019562 245.385986 272.921021 C 245.366394 274.099182 245.344223 275.275635 245.322083 276.450043 C 244.951233 296.129974 244.591156 315.23819 256.524994 332.267029 Z"/>
        </g>
        <path id="path5" fill="#fefefe" stroke="none" d="M 336.884003 272.63501 C 339.843994 273.072021 343.647003 274.789001 344.338989 277.83197 C 345.864014 284.536987 331.588989 294.846985 327.154999 299.617981 C 319.292999 307.40802 311.205994 315.362976 303.121002 322.880005 C 296.694 328.856018 284.480988 313.788025 279.614014 309.072021 C 277.847992 307.572998 272.122009 303.096985 272.028015 300.479004 C 271.631989 294.278992 277.774994 290.119995 283.166992 294.392029 C 288.589996 298.690002 293.695007 303.966003 298.783997 308.723022 C 305.119995 302.515015 331.509003 275.169983 336.884003 272.63501 Z"/>
        <path id="path6" fill="#fefefe" stroke="none" d="M 96.350006 223.684021 C 96.356995 222.765015 96.369995 221.846985 96.389999 220.927979 C 96.936996 195.809998 106.477997 172.109009 124.798004 154.679993 C 142.735001 137.893982 166.595993 128.901978 191.151001 129.676025 C 215.807007 130.414001 239.147003 140.968994 255.984009 158.997009 C 274.942993 179.442017 281.375 202.883972 280.257996 230.142029 C 287.88501 226.851013 295.352997 222.76001 303.009003 219.606995 C 305.964996 218.388977 308.542999 218.515991 311.596008 219.599976 C 320.575012 222.788025 329.380005 227.39502 338.350006 231.140991 C 344.639008 233.765991 354.738007 236.370972 359.803986 238.830994 C 363.140015 243.294983 364.903992 245.018005 366.790985 250.393005 C 351.201996 245.828979 337.002014 242.752014 322.523987 234.919006 C 318.332001 232.651001 311.186005 228.609009 306.286011 229.461975 C 297.061005 232.041016 289.165985 237.755005 280.139008 241.155029 C 269.902008 245.01001 259.104004 246.987976 249.023987 250.857971 C 243.584015 252.947021 245.46701 268.044983 245.385986 272.921021 C 245.037994 293.84198 243.878998 314.221985 256.524994 332.267029 C 260.790009 338.690979 263.438995 341.713989 268.562012 347.552002 C 264.09201 347.208008 260.372986 346.804993 256.046997 348.369995 C 243.105988 334.606995 236.634003 317.765015 235.539001 299.047974 C 225.869995 304.79303 217.792999 308.310974 206.731995 310.882019 C 182.587997 316.310974 157.276001 311.836975 136.455994 298.458984 C 134.429993 297.132996 133.876999 296.346985 133.356995 294.02002 C 134.320007 288.721008 139.070007 283.879028 142.770004 280.122986 C 148.126999 274.427979 156.367996 283.075989 162.417007 285.049988 C 190.962006 294.362 213.652008 288.34198 235.679993 268.952026 C 235.395996 249.469971 234.213989 243.197998 255.252991 238.72699 C 256.115997 233.163025 257.031006 228.289001 257.122986 222.622009 C 257.341003 204.35498 250.272003 186.752991 237.480011 173.710022 C 224.53299 160.60498 206.873001 153.239014 188.451004 153.260986 C 170.046997 153.218994 152.376007 160.474976 139.311005 173.437012 C 125.587006 187.132996 119.473999 204.546021 119.513 223.700989 C 134.940002 223.539978 148.811005 221.288025 132.800003 238.333984 C 130.498001 240.784973 124.858994 247.987976 122.990005 250.336975 C 107.546997 269.739014 109.348999 269.85199 93.811996 250.653015 C 90.063995 246.021973 75.366997 230.448975 76.844002 225.700989 C 80.545998 222.517029 91.024002 223.56897 96.350006 223.684021 Z"/>
        <path id="path7" fill="#ccf1fe" stroke="none" d="M 151.697998 82.577026 C 160.218002 85.087036 165.302994 93.872986 174.024994 95.184998 C 181.139999 96.255005 189.559006 95.861023 196.813995 95.843018 L 234.621002 95.747009 L 308.744995 95.789001 C 321.088989 95.794006 335.221008 96.143982 347.358002 95.676025 L 347.825989 97.125977 C 351.404999 97.179016 353.955994 96.880981 357.299011 97.883972 C 347.328003 98.390991 331.584015 97.880981 321.286011 97.880981 L 247.424011 97.88501 L 201.975998 97.893005 C 192.714996 97.892029 181.608994 98.356018 172.578995 96.869019 C 166.498993 95.869019 159.421005 87.768005 153.218002 84.773987 L 151.697998 82.577026 Z"/>
    </g>
</svg>
