<?xml version="1.0" encoding="UTF-8"?>
<!-- Generated by Pixelmator Pro 3.8 -->
<svg width="1152" height="366" viewBox="0 0 1152 366" xmlns="http://www.w3.org/2000/svg">
    <g id="Group">
        <path id="Path" fill="#0278fe" stroke="none" d="M 1.5219 295.794983 C 0.7001 233.466003 1.226601 170.164978 1.225899 107.770996 L 1.2174 49.369995 C 1.1991 35.166992 -2.252602 15.014038 9.944504 5.803955 C 17.987701 -0.27002 29.127602 0.990967 38.662399 1.039001 L 71.803001 1.216003 L 111.014008 1.01001 C 147.048996 0.823975 144.085999 2.059998 162.925003 31.757996 C 169.462006 42.062988 196.082001 39.377991 208.291992 39.329956 L 283.419006 39.255005 C 313.171997 39.244019 341.760986 32.411987 338.764008 72.666992 C 338.562012 75.377014 338.769989 77.843018 338.358002 80.676025 L 338.825989 82.125977 C 342.404999 82.179016 344.955994 81.880981 348.299011 82.883972 C 354.690002 85.385986 363.675995 91.28302 364.684998 98.013977 C 366.332001 108.999023 363.052002 127.510986 361.669006 138.429016 L 355.419006 187.583008 C 354.687012 193.442993 352.115997 219.927002 350.803986 223.830994 C 354.140015 228.294983 355.903992 230.018005 357.790985 235.393005 L 360.979004 239.117981 L 361.088013 268.950012 C 361.151001 296.702026 359.178009 309.435974 338.628998 331.731995 C 331.257996 339.72998 309.549011 355.61499 298.757996 355.60498 C 288.309998 355.596008 267.212006 339.697998 259.562012 332.552002 C 255.09201 332.208008 251.372986 331.804993 247.046997 333.369995 C 237.756012 334.007019 223.259003 333.549011 213.394989 333.547974 L 149.785004 333.534973 L 67.920998 333.572021 C 53.836998 333.575012 39.587898 333.669983 25.494598 333.494019 C 17.429001 333.202026 12.2341 332.106995 6.654202 325.70697 C -0.7099 317.258972 1.052601 306.249023 1.5219 295.794983 Z"/>
        <path id="path1" fill="#003fbb" stroke="none" d="M 1.5219 295.794983 C 0.7001 233.466003 1.226601 170.164978 1.225899 107.770996 L 1.2174 49.369995 C 1.1991 35.166992 -2.252602 15.014038 9.944504 5.803955 C 17.987701 -0.27002 29.127602 0.990967 38.662399 1.039001 L 71.803001 1.216003 L 111.014008 1.01001 C 147.048996 0.823975 144.085999 2.059998 162.925003 31.757996 C 169.462006 42.062988 196.082001 39.377991 208.291992 39.329956 L 283.419006 39.255005 C 313.171997 39.244019 341.760986 32.411987 338.764008 72.666992 C 338.562012 75.377014 338.769989 77.843018 338.358002 80.676025 C 326.221008 81.143982 312.088989 80.794006 299.744995 80.789001 L 225.621002 80.747009 L 187.813995 80.843018 C 180.559006 80.861023 172.139999 81.255005 165.024994 80.184998 C 156.302994 78.872986 151.218002 70.087036 142.697998 67.577026 L 144.218002 69.773987 C 142.128998 69.109985 139.296997 68.261963 137.097 68.234009 C 105.783997 67.841003 74.335007 67.707031 43.030403 68.276978 C 32.936096 68.460999 27.897903 75.15802 23.185303 83.057007 C 22.781097 83.734985 22.950699 83.502991 22.225403 83.979004 C 21.010696 87.679993 19.493797 114.127991 18.925102 119.822998 L 8.0214 237.724976 C 6.9259 249.958008 5.757301 262.185974 4.515598 274.405029 C 3.991798 279.387024 2.7798 291.05603 1.5219 295.794983 Z"/>
        <path id="path2" fill="#ccf1fe" stroke="none" d="M 22.225403 83.979004 C 22.452301 82.841003 22.603203 82.28302 23.026703 81.172974 C 25.392899 74.997986 30.226402 70.087036 36.364304 67.624023 C 41.088699 65.718994 50.071999 65.880005 55.357002 65.914001 C 82.531006 66.088013 109.755005 65.530029 136.914993 66.198975 C 138.951004 66.249023 140.834 66.823975 142.697998 67.577026 L 144.218002 69.773987 C 142.128998 69.109985 139.296997 68.261963 137.097 68.234009 C 105.783997 67.841003 74.335007 67.707031 43.030403 68.276978 C 32.936096 68.460999 27.897903 75.15802 23.185303 83.057007 C 22.781097 83.734985 22.950699 83.502991 22.225403 83.979004 Z"/>
        <g id="g1">
            <path id="path3" fill="#00b4a2" stroke="none" d="M 259.562012 332.552002 C 254.438995 326.713989 251.790009 323.690979 247.524994 317.267029 C 234.878998 299.221985 236.037994 278.84198 236.385986 257.921021 C 236.46701 253.044983 234.584015 237.947021 240.023987 235.857971 C 250.104004 231.987976 260.902008 230.01001 271.139008 226.155029 C 280.165985 222.755005 288.061005 217.041016 297.286011 214.461975 C 302.186005 213.609009 309.332001 217.651001 313.523987 219.919006 C 328.002014 227.752014 342.201996 230.828979 357.790985 235.393005 L 360.979004 239.117981 L 361.088013 268.950012 C 361.151001 296.702026 359.178009 309.435974 338.628998 331.731995 C 331.257996 339.72998 309.549011 355.61499 298.757996 355.60498 C 288.309998 355.596008 267.212006 339.697998 259.562012 332.552002 Z"/>
            <path id="path4" fill="#ffffff" fill-rule="evenodd" stroke="none" d="M 252.04567 339.147797 L 252.373047 339.520874 L 252.735764 339.85968 C 257.587616 344.391876 265.373383 350.431519 272.684418 355.154572 C 282.875397 361.738129 291.463409 365.598724 298.74942 365.60498 C 306.204163 365.611877 315.208496 361.652649 325.400055 355.072662 C 333.428223 349.889404 341.479065 343.395386 345.982422 338.508972 C 357.124054 326.420105 363.538666 316.480408 367.102448 305.46524 C 370.255371 295.71994 371.127136 286.173218 371.087982 268.927307 L 370.978943 239.081436 L 370.965515 235.407211 L 368.576416 232.615738 L 365.388397 228.890762 L 363.454773 226.631439 L 360.600769 225.795868 C 358.879333 225.29187 357.108276 224.785797 354.985168 224.188614 C 353.810455 223.8582 349.881989 222.760529 349.563843 222.671371 C 337.830627 219.383179 331.57309 217.339111 324.817444 214.33374 C 322.57309 213.335312 320.404327 212.271713 318.282471 211.123734 C 318.093964 211.021744 317.871613 210.901062 317.417969 210.654816 C 317.034515 210.446823 316.737244 210.286209 316.435394 210.124207 C 315.625214 209.689438 314.901886 209.309753 314.177185 208.941757 C 311.957092 207.814392 309.919647 206.897675 307.886169 206.159348 C 303.558167 204.587891 299.568695 203.914246 295.571045 204.610123 L 295.076752 204.696167 L 294.593536 204.831268 C 289.540466 206.243958 285.597748 208.002884 278.537292 211.634949 C 278.302856 211.755554 278.084808 211.867844 277.636749 212.098618 C 272.652893 214.665466 270.34552 215.768082 267.614227 216.796829 C 264.110291 218.116318 260.637054 219.187103 254.757553 220.832382 C 254.257202 220.972397 253.994507 221.04567 252.900696 221.350494 C 244.820129 223.602417 241.060486 224.748352 236.439789 226.522369 C 231.440521 228.442169 228.708374 232.478226 227.327744 237.522278 C 226.537827 240.408173 226.205017 243.610138 226.144638 247.365463 C 226.111679 249.415314 226.155899 251.297501 226.270096 254.085022 C 226.385681 256.906342 226.396286 257.21817 226.38736 257.754883 C 226.371384 258.716003 226.356812 259.512939 226.324844 261.209869 C 226.036819 276.494415 226.175598 283.221039 227.408401 291.757416 C 229.099838 303.469421 232.79454 313.634827 239.261505 322.899872 C 243.245438 328.894287 245.385162 331.557739 252.04567 339.147797 Z M 247.524994 317.267029 C 251.790009 323.690979 254.438995 326.713989 259.562012 332.552002 C 267.212006 339.697998 288.309998 355.596008 298.757996 355.60498 C 309.549011 355.61499 331.257996 339.72998 338.628998 331.731995 C 359.178009 309.435974 361.151001 296.702026 361.088013 268.950012 L 360.979004 239.117981 L 357.790985 235.393005 C 342.201996 230.828979 328.002014 227.752014 313.523987 219.919006 C 313.338226 219.818497 313.146637 219.714508 312.949738 219.60762 C 308.703064 217.302368 301.968872 213.646805 297.286011 214.461975 C 288.061005 217.041016 280.165985 222.755005 271.139008 226.155029 C 260.902008 230.01001 250.104004 231.987976 240.023987 235.857971 C 235.589722 237.560806 236.021072 247.907196 236.288223 254.315369 C 236.348816 255.768768 236.40097 257.019562 236.385986 257.921021 C 236.366394 259.099182 236.344223 260.275635 236.322083 261.450043 C 235.951233 281.129974 235.591156 300.23819 247.524994 317.267029 Z"/>
        </g>
        <path id="path5" fill="#fefefe" stroke="none" d="M 327.884003 257.63501 C 330.843994 258.072021 334.647003 259.789001 335.338989 262.83197 C 336.864014 269.536987 322.588989 279.846985 318.154999 284.617981 C 310.292999 292.40802 302.205994 300.362976 294.121002 307.880005 C 287.694 313.856018 275.480988 298.788025 270.614014 294.072021 C 268.847992 292.572998 263.122009 288.096985 263.028015 285.479004 C 262.631989 279.278992 268.774994 275.119995 274.166992 279.392029 C 279.589996 283.690002 284.695007 288.966003 289.783997 293.723022 C 296.119995 287.515015 322.509003 260.169983 327.884003 257.63501 Z"/>
        <path id="path6" fill="#fefefe" stroke="none" d="M 87.350006 208.684021 C 87.356995 207.765015 87.369995 206.846985 87.389999 205.927979 C 87.936996 180.809998 97.477997 157.109009 115.798004 139.679993 C 133.735001 122.893982 157.595993 113.901978 182.151001 114.676025 C 206.807007 115.414001 230.147003 125.968994 246.984009 143.997009 C 265.942993 164.442017 272.375 187.883972 271.257996 215.142029 C 278.88501 211.851013 286.352997 207.76001 294.009003 204.606995 C 296.964996 203.388977 299.542999 203.515991 302.596008 204.599976 C 311.575012 207.788025 320.380005 212.39502 329.350006 216.140991 C 335.639008 218.765991 345.738007 221.370972 350.803986 223.830994 C 354.140015 228.294983 355.903992 230.018005 357.790985 235.393005 C 342.201996 230.828979 328.002014 227.752014 313.523987 219.919006 C 309.332001 217.651001 302.186005 213.609009 297.286011 214.461975 C 288.061005 217.041016 280.165985 222.755005 271.139008 226.155029 C 260.902008 230.01001 250.104004 231.987976 240.023987 235.857971 C 234.584015 237.947021 236.46701 253.044983 236.385986 257.921021 C 236.037994 278.84198 234.878998 299.221985 247.524994 317.267029 C 251.790009 323.690979 254.438995 326.713989 259.562012 332.552002 C 255.09201 332.208008 251.372986 331.804993 247.046997 333.369995 C 234.105988 319.606995 227.634003 302.765015 226.539001 284.047974 C 216.869995 289.79303 208.792999 293.310974 197.731995 295.882019 C 173.587997 301.310974 148.276001 296.836975 127.455994 283.458984 C 125.429993 282.132996 124.876999 281.346985 124.356995 279.02002 C 125.320007 273.721008 130.070007 268.879028 133.770004 265.122986 C 139.126999 259.427979 147.367996 268.075989 153.417007 270.049988 C 181.962006 279.362 204.652008 273.34198 226.679993 253.952026 C 226.395996 234.469971 225.213989 228.197998 246.252991 223.72699 C 247.115997 218.163025 248.031006 213.289001 248.122986 207.622009 C 248.341003 189.35498 241.272003 171.752991 228.480011 158.710022 C 215.53299 145.60498 197.873001 138.239014 179.451004 138.260986 C 161.046997 138.218994 143.376007 145.474976 130.311005 158.437012 C 116.587006 172.132996 110.473999 189.546021 110.513 208.700989 C 125.940002 208.539978 139.811005 206.288025 123.800003 223.333984 C 121.498001 225.784973 115.858994 232.987976 113.990005 235.336975 C 98.546997 254.739014 100.348999 254.85199 84.811996 235.653015 C 81.063995 231.021973 66.366997 215.448975 67.844002 210.700989 C 71.545998 207.517029 82.024002 208.56897 87.350006 208.684021 Z"/>
        <path id="path7" fill="#ccf1fe" stroke="none" d="M 142.697998 67.577026 C 151.218002 70.087036 156.302994 78.872986 165.024994 80.184998 C 172.139999 81.255005 180.559006 80.861023 187.813995 80.843018 L 225.621002 80.747009 L 299.744995 80.789001 C 312.088989 80.794006 326.221008 81.143982 338.358002 80.676025 L 338.825989 82.125977 C 342.404999 82.179016 344.955994 81.880981 348.299011 82.883972 C 338.328003 83.390991 322.584015 82.880981 312.286011 82.880981 L 238.424011 82.88501 L 192.975998 82.893005 C 183.714996 82.892029 172.608994 83.356018 163.578995 81.869019 C 157.498993 80.869019 150.421005 72.768005 144.218002 69.773987 L 142.697998 67.577026 Z"/>
    </g>
    <path id="path8" fill="#062f68" stroke="none" d="M 423.104004 120.77301 L 458.476013 120.617004 C 469.223022 120.577026 479.392029 119.927002 490.005981 122.107971 C 519.836975 128.239014 528.427979 167.026001 500.429993 182.692993 C 502.47998 183.465027 504.492981 184.333984 506.460022 185.296997 C 525.280029 194.567993 528.385986 216.208008 519.302979 233.440979 C 504.174011 255.028992 480.539001 251.528992 457.27002 251.434998 L 420.373993 251.367004 C 420.109985 238.91803 419.601013 124.244995 420.785004 121.080017 L 423.104004 120.77301 Z M 442.303009 232.195984 C 455.226013 232.150024 483.192993 233.703979 493.033997 229.106018 C 509.02002 218.414001 502.291992 195.994995 483.741028 194.135986 C 472.198975 192.979004 460.182983 193.549988 448.565002 193.645996 C 446.256012 193.663025 444.110992 193.372009 442.278992 194.661987 C 441.591003 202.166992 441.95401 224.161987 442.303009 232.195984 Z M 442.083008 175.085999 C 451.147003 175.005981 460.276001 175.018005 469.335999 175.119995 C 477.929993 175.216003 482.814026 175.015991 489.950012 169.864014 C 493.309021 165.638977 495.859985 160.952026 495.314026 155.323975 C 494.929993 151.133972 492.885986 147.27002 489.638977 144.593018 C 485.588013 141.263 479.505981 139.815979 474.353027 139.867004 C 463.741028 139.969971 452.674011 139.585999 442.095001 140.067993 C 441.992004 151.741028 441.988007 163.414001 442.083008 175.085999 Z"/>
    <path id="path9" fill="#062f68" stroke="none" d="M 981.02002 158.005005 C 984 157.758972 987 157.713013 989.98999 157.867981 C 1032.48999 160.174011 1046.189941 217.395996 1015.130005 243.132019 C 998.47998 256.924011 968.72998 256.924011 954.679993 239.440979 C 954.840027 245.72699 954.76001 252.393005 954.789978 258.710999 C 954.809998 269.103027 955.01001 280.127014 954.580017 290.455017 C 947.640015 290.590027 940.478027 290.530029 933.518005 290.554993 C 932.916016 247.632019 933.502991 203.14502 933.518982 160.090027 C 940.299988 159.978027 947.659973 159.687988 954.380005 160.174011 L 954.799988 173.348999 C 962.390015 163.237976 968.699951 159.968994 981.02002 158.005005 Z M 985.189941 233.791016 C 1000.810059 232.187012 1012.219971 218.275024 1010.719971 202.640991 C 1009.219971 187.007996 995.380005 175.513 979.73999 176.906006 C 963.950012 178.310974 952.320007 192.307983 953.830017 208.09198 C 955.340027 223.875977 969.420044 235.409973 985.189941 233.791016 Z"/>
    <path id="path10" fill="#0278fe" stroke="none" d="M 1124.369995 120.671997 L 1150.300049 120.637024 C 1144.160034 130.372986 1137.02002 140.164001 1130.550049 149.729004 C 1122.650024 161.40802 1114.780029 173.156982 1106.660034 184.679993 C 1121.410034 206.987976 1136.310059 229.185974 1151.390015 251.273987 C 1149.040039 251.44397 1145.780029 251.388977 1143.349976 251.424011 C 1137.23999 251.484985 1131.119995 251.437012 1125.01001 251.278015 C 1114.430054 234.914001 1102.98999 218.296021 1092.810059 201.75 C 1081.819946 218.153015 1071.069946 235.187988 1059.77002 251.325012 C 1051.410034 251.481995 1043.050049 251.442993 1034.699951 251.208984 C 1044.72998 234.554016 1057.26001 218.361023 1067.76001 201.919006 C 1071.359985 196.296021 1075.660034 190.135986 1079.719971 184.86499 C 1075.949951 180.008972 1036.97998 122.219971 1036.949951 121.164978 L 1038.550049 120.767029 L 1062.359985 120.606995 C 1072.569946 135.455994 1083.069946 152.492981 1093.050049 167.726013 C 1103.380005 152.221985 1113.77002 135.875977 1124.369995 120.671997 Z"/>
    <path id="path11" fill="#062f68" stroke="none" d="M 573.502991 158.038025 C 574.299011 157.955994 575.096985 157.895996 575.896973 157.857971 C 587.866028 157.307983 600.867004 159.380005 609.820007 168.000977 C 614.02301 172.083008 617.005981 177.254028 618.434998 182.935974 C 620.528015 190.93103 619.935974 205.812988 619.942017 214.726013 L 620.007019 251.396973 L 599.747009 251.304016 L 599.616028 240.778992 C 583.307983 257.187012 554.736023 258.833984 539.773987 240.060974 C 537.185974 235.76001 535.81897 230.835999 535.820984 225.817017 C 535.624023 192.429016 576.984009 195.789978 599.554016 195.747009 L 599.304993 193.672974 C 598.81897 189.518005 598.054016 184.882996 594.916992 181.916992 C 582.244019 169.935974 565.080994 175.987976 554.369995 185.979004 L 541.322998 173.41803 C 549.564026 163.393982 561.195984 159.794006 573.502991 158.038025 Z M 579.070984 236.752991 C 595.133972 233.461975 599.122986 226.320007 599.15802 210.676025 C 592.116028 210.609985 585.302979 210.536011 578.255981 210.747009 C 572.604004 211.067017 563.375 211.794006 560.252014 216.656982 C 549.903015 232.768982 567.039001 238.278992 579.070984 236.752991 Z"/>
    <path id="path12" fill="#062f68" stroke="none" d="M 734.572998 120.695984 L 756.247986 120.64801 L 756.469971 199.427002 C 768.872986 186.346008 780.929016 173.258972 793.481995 160.271973 L 820.276001 160.153015 C 808.773987 170.862976 793.539001 187.812988 782.301025 199.546997 L 805.400024 229.244995 C 810.991028 236.098999 816.872986 244.236023 822.263977 251.356018 C 813.617004 251.492004 804.968994 251.434998 796.325012 251.185974 C 786.679016 239.429993 776.598022 225.471985 767.40802 213.200989 L 756.346985 224.455994 L 756.382996 251.382019 C 749.278015 251.268005 741.841003 251.393005 734.708984 251.405029 C 734.169983 236.984009 734.557983 220.015015 734.557983 205.41803 L 734.572998 120.695984 Z"/>
    <path id="path13" fill="#062f68" stroke="none" d="M 842.830994 159.969971 L 850.815002 159.940979 L 850.672974 195.070007 C 850.640015 205.617981 849.020996 219.632996 856.403992 227.984985 C 864.284973 236.901978 879.984009 235.554016 888.155029 227.731995 C 891.521973 224.447998 893.85199 220.247986 894.856995 215.653992 C 896.172974 209.885986 895.708984 197.861023 895.671021 191.48999 L 895.596008 160.265015 L 917.197998 160.070984 C 917.380005 174.52301 917.174011 189.442017 917.158997 203.932007 L 917.127991 251.39801 L 895.732971 251.416016 C 895.651001 247.127991 895.528015 243.776978 895.97998 239.504028 C 876.708984 261.044006 839.091003 257.377014 830.767029 227.008972 C 828.482971 218.677002 829.366028 206.120972 829.370972 197.174988 L 829.406982 160.14801 L 842.830994 159.969971 Z"/>
    <path id="path14" fill="#062f68" stroke="none" d="M 675.429993 157.995972 C 695.216003 156.023987 711.401978 162.869019 722.320984 179.60498 C 716.119019 182.888977 710.025024 186.372986 704.049011 190.051025 C 698.409973 180.531006 691.075012 175.820984 679.742981 176.536987 C 672.593018 176.945007 665.914001 180.234009 661.232971 185.653015 C 650.919983 197.541016 651.864014 219.257019 664.812988 228.495972 C 678.106018 237.97998 694.210022 235.664001 703.408997 222.307983 L 704.09198 221.359985 C 706.791016 221.16803 719.455994 229.638977 722.518005 231.580994 C 714.960999 242.302979 706.286987 249.226013 693.143982 251.843018 C 679.367981 254.585022 664.672974 252.315979 652.981018 244.375977 C 642.856018 237.564026 635.900024 226.961975 633.682007 214.961975 C 628.401001 185.546021 646.500977 162.669983 675.429993 157.995972 Z"/>
</svg>
